<svg id="Layer_2" data-name="Layer 2" xmlns="http://www.w3.org/2000/svg" viewBox="0 0 76.84 55.92"><defs><style>.cls-1,.cls-2{fill:#fff;}.cls-2{font-size:22.48px;font-family:Candara-Bold, Candara;font-weight:700;}</style></defs><title>logo</title><path class="cls-1" d="M11.52,17.48a15.81,15.81,0,0,1,9.33-8.55c5.27-1.81,9.94-.14,13.57,1.22,3.95,1.48,7.11,4.76,14.35,9.8,5.66,3.94,11.28,8,16.93,11.9a10.12,10.12,0,0,0,15.91-6.47,10.77,10.77,0,0,0-8.79-12.46,11.31,11.31,0,0,0-7.54,1.32c-.76.43-1.55.79-2.32,1.18.17,2.52-1.13,4.11-3.13,4.56a3.9,3.9,0,0,1-4.2-1.93,4,4,0,0,1,.63-4.6c1.32-1.37,3.15-1.5,5.32-.34a12.54,12.54,0,0,1,5.08-3.48,15.34,15.34,0,0,1,20.44,12A16.05,16.05,0,0,1,61.79,37Q46.85,26.46,31.92,15.88c-4-2.86-8.57-3-12.38-.25-6.54,4.68-5.69,14.75,1.6,18.51A11.32,11.32,0,0,0,32.36,34c1.5-.82,3-1.7,4.47-2.52a1,1,0,0,0,.62-1.19,2.68,2.68,0,0,1,1.93-3,2.78,2.78,0,0,1,2.39,4.94c-1,.72-2.1.64-3.66-.27-1.31,1.08-2.62,2.17-4,3.24A14.49,14.49,0,0,1,11.9,30a10.06,10.06,0,0,1-.45-1.12A16.39,16.39,0,0,1,11.52,17.48Z" transform="translate(-10.43 -8.14)"/><text class="cls-2" transform="translate(6.97 49.67)">Seater</text></svg>