<svg id="OBJECTS" xmlns="http://www.w3.org/2000/svg" viewBox="0 0 105.95 77.1"><defs><style>.cls-1,.cls-2{fill:#fff;}.cls-2{font-size:31px;font-family:Candara-Bold, Candara;font-weight:700;}</style></defs><title>logo1</title><path class="cls-1" d="M117.65,176.18c3.47-8.43,11.6-11.35,12.87-11.79,7.28-2.49,13.72-.18,18.71,1.69,5.45,2,9.8,6.56,19.8,13.52,7.8,5.43,15.55,11,23.34,16.4a14,14,0,0,0,21.94-8.92,14.86,14.86,0,0,0-12.12-17.18,15.67,15.67,0,0,0-10.41,1.82c-1,.59-2.13,1.09-3.19,1.63.23,3.47-1.56,5.66-4.32,6.29a5.36,5.36,0,0,1-5.79-2.67,5.49,5.49,0,0,1,.86-6.34c1.84-1.88,4.35-2.07,7.35-.48a17.28,17.28,0,0,1,7-4.79c12.21-4.77,26.33,3.52,28.18,16.54A22.14,22.14,0,0,1,187,203.16Q166.38,188.58,145.78,174c-5.56-3.95-11.81-4.1-17.06-.34-9,6.45-7.84,20.33,2.2,25.52a15.63,15.63,0,0,0,15.48-.22c2.07-1.13,4.09-2.35,6.16-3.47a1.34,1.34,0,0,0,.86-1.65,3.68,3.68,0,0,1,2.66-4.15,3.83,3.83,0,0,1,3.3,6.81c-1.37,1-2.9.88-5.06-.37-1.81,1.48-3.61,3-5.45,4.47a20,20,0,0,1-30.69-7.08,13.34,13.34,0,0,1-.61-1.54C117.07,190.53,114.62,183.56,117.65,176.18Z" transform="translate(-116.16 -163.3)"/><text class="cls-2" transform="translate(9.62 68.49)">Seater</text></svg>